# File created by Blade
# Date/Time:  Mon Sep 22 16:09:39 2014
# Frame Rate: 120.000 fps
#------------------------------------------------------
:FULLY-SPECIFIED
:DEGREES
2239
root 2.360091 37.017074 2.372165 1.762146 -5.396350 1.200608
RightUpLeg 5.942046 -4.256916 -1.856736
RightLeg -5.071657 -0.000000 0.000000
RightFoot -12.705016 -15.368127 15.560845
RightToeBase 14.735399 -0.000000 -0.000000
LeftUpLeg 4.352509 2.747779 2.410391
LeftLeg -1.945381 -0.000000 0.000000
LeftFoot -10.552535 14.212933 -17.543126
LeftToeBase 9.801553 -0.000000 -0.000000
Spine -1.044634 -5.725436 -1.163365
RightShoulder 0.965304 -19.431013 -2.750043
RightArm 18.629835 15.848823 87.052049
RightForeArm 85.067053 -0.000000 81.639275
RightHand 18.469334 -0.000000 -8.533065
RightHandThumb1 -24.326973 -0.000000 -32.862282
LeftShoulder -21.925107 36.696176 -1.197858
LeftArm 42.414340 11.291557 -69.302504
LeftForeArm 16.855284 0.000000 32.784165
LeftHand -13.936684 -0.000000 -6.523363
LeftHandThumb1 -26.253704 0.000000 33.147579
Head 12.908986 -23.243527 11.173264
2240
root 2.358243 37.016654 2.376614 1.755849 -5.305015 1.207184
RightUpLeg 5.970585 -4.246763 -1.854634
RightLeg -5.075294 -0.000000 0.000000
RightFoot -12.769006 -15.441667 15.632087
RightToeBase 14.783476 -0.000000 -0.000000
LeftUpLeg 4.344519 2.690867 2.411023
LeftLeg -1.931639 -0.000000 0.000000
LeftFoot -10.542530 14.178694 -17.537773
LeftToeBase 9.755405 -0.000000 -0.000000
Spine -1.053193 -5.737526 -1.181653
RightShoulder 1.004338 -19.446606 -2.771857
RightArm 18.557436 16.201059 87.191321
RightForeArm 85.326775 0.000000 81.447684
RightHand 18.414747 -0.000000 -8.565846
RightHandThumb1 -24.326973 -0.000000 -32.862282
LeftShoulder -21.893649 36.778834 -1.206805
LeftArm 42.472104 11.429324 -69.189298
LeftForeArm 16.917258 -0.000000 33.048472
LeftHand -13.884776 -0.000000 -6.701370
LeftHandThumb1 -26.253704 0.000000 33.147579
Head 12.770053 -23.260201 11.262739
2241
root 2.357182 37.016041 2.385110 1.730396 -5.181704 1.203966
RightUpLeg 6.038634 -4.316749 -1.848334
RightLeg -5.096090 -0.000000 0.000000
RightFoot -12.769636 -15.482396 15.638325
RightToeBase 14.748604 -0.000000 -0.000000
LeftUpLeg 4.361813 2.595934 2.422475
LeftLeg -1.924308 -0.000000 0.000000
LeftFoot -10.540710 14.151382 -17.519334
LeftToeBase 9.748633 -0.000000 -0.000000
Spine -1.038825 -5.798141 -1.181352
RightShoulder 1.022313 -19.338627 -2.769070
RightArm 18.380054 16.529278 87.250014
RightForeArm 85.420271 0.000000 81.295927
RightHand 18.725985 -0.000000 -8.974722
RightHandThumb1 -24.326973 -0.000000 -32.862282
LeftShoulder -21.884118 36.859411 -1.222328
LeftArm 42.530733 11.576231 -69.106551
LeftForeArm 16.994061 0.000000 33.255626
LeftHand -13.902012 -0.000000 -6.588263
LeftHandThumb1 -26.253704 0.000000 33.147579
Head 12.622809 -23.290602 11.329855
2242
root 2.357303 37.014922 2.393780 1.721617 -5.063330 1.221042
RightUpLeg 6.077163 -4.390645 -1.859495
RightLeg -5.094075 -0.000000 0.000000
RightFoot -12.788240 -15.536788 15.591033
RightToeBase 14.707525 -0.000000 -0.000000
LeftUpLeg 4.365973 2.529012 2.410619
LeftLeg -1.926854 -0.000000 0.000000
LeftFoot -10.526748 14.103134 -17.508616
LeftToeBase 9.755792 -0.000000 -0.000000
Spine -1.049950 -5.863944 -1.200519
RightShoulder 1.045314 -19.421282 -2.787340
RightArm 18.360475 16.871945 87.415157
RightForeArm 85.768671 0.000000 81.203678
RightHand 18.625957 -0.000000 -8.879547
RightHandThumb1 -24.326973 -0.000000 -32.862282
LeftShoulder -21.883742 36.933038 -1.227562
LeftArm 42.542842 11.721210 -69.053998
LeftForeArm 17.040724 -0.000000 33.451271
LeftHand -13.853143 -0.000000 -6.701902
LeftHandThumb1 -26.253704 0.000000 33.147579
Head 12.478360 -23.284601 11.392372
2243
root 2.358482 37.013964 2.401085 1.717741 -4.978334 1.242770
RightUpLeg 6.108356 -4.409775 -1.877337
RightLeg -5.105902 -0.000000 0.000000
RightFoot -12.822527 -15.613183 15.585316
RightToeBase 14.689699 -0.000000 -0.000000
LeftUpLeg 4.360667 2.473297 2.392982
LeftLeg -1.913161 -0.000000 0.000000
LeftFoot -10.534334 14.057665 -17.539626
LeftToeBase 9.808886 -0.000000 -0.000000
Spine -1.059476 -5.906779 -1.213752
RightShoulder 1.028831 -19.448664 -2.780858
RightArm 18.314890 17.173922 87.546707
RightForeArm 85.925278 -0.000000 81.140310
RightHand 19.327061 -0.000000 -9.348943
RightHandThumb1 -24.326973 -0.000000 -32.862282
LeftShoulder -21.885632 36.993560 -1.251588
LeftArm 42.513535 11.853173 -69.006740
LeftForeArm 17.081602 -0.000000 33.655278
LeftHand -13.894745 -0.000000 -6.541510
LeftHandThumb1 -26.253704 0.000000 33.147579
Head 12.322774 -23.236261 11.443979
2244
root 2.358572 37.013404 2.408184 1.712762 -4.894129 1.254203
RightUpLeg 6.138760 -4.429769 -1.886186
RightLeg -5.108135 -0.000000 0.000000
RightFoot -12.877249 -15.653107 15.640419
RightToeBase 14.734938 -0.000000 -0.000000
LeftUpLeg 4.368238 2.441351 2.387174
LeftLeg -1.923248 -0.000000 0.000000
LeftFoot -10.503106 14.007651 -17.522615
LeftToeBase 9.775019 -0.000000 -0.000000
Spine -1.064151 -5.970726 -1.212812
RightShoulder 1.018356 -19.360429 -2.765752
RightArm 18.139945 17.456199 87.615722
RightForeArm 86.119454 -0.000000 81.099010
RightHand 19.054180 -0.000000 -8.796332
RightHandThumb1 -24.326973 -0.000000 -32.862282
LeftShoulder -21.906326 37.049449 -1.290175
LeftArm 42.492296 11.965761 -68.977830
LeftForeArm 17.033218 -0.000000 33.794977
LeftHand -13.965786 0.000000 -6.593313
LeftHandThumb1 -26.253704 0.000000 33.147579
Head 12.178208 -23.164867 11.479860
2245
root 2.358894 37.012445 2.416156 1.717079 -4.804852 1.266079
RightUpLeg 6.170012 -4.473975 -1.895970
RightLeg -5.128016 -0.000000 0.000000
RightFoot -12.896278 -15.693900 15.640522
RightToeBase 14.718720 -0.000000 -0.000000
LeftUpLeg 4.372295 2.399648 2.378850
LeftLeg -1.943997 -0.000000 0.000000
LeftFoot -10.476027 13.966684 -17.501646
LeftToeBase 9.739863 -0.000000 -0.000000
Spine -1.082720 -6.057004 -1.205389
RightShoulder 0.997909 -19.488322 -2.774560
RightArm 18.200470 17.734979 87.772659
RightForeArm 86.219636 0.000000 81.069826
RightHand 18.898896 -0.000000 -8.951332
RightHandThumb1 -24.326973 -0.000000 -32.862282
LeftShoulder -21.944290 37.133842 -1.334502
LeftArm 42.475067 12.070777 -68.977567
LeftForeArm 17.052665 -0.000000 33.889413
LeftHand -13.967904 -0.000000 -6.557354
LeftHandThumb1 -26.253704 0.000000 33.147579
Head 12.041512 -23.049507 11.509682
2246
root 2.359336 37.011594 2.423459 1.720507 -4.739340 1.278624
RightUpLeg 6.190067 -4.495834 -1.905137
RightLeg -5.134512 -0.000000 0.000000
RightFoot -12.929304 -15.731761 15.664111
RightToeBase 14.720039 -0.000000 -0.000000
LeftUpLeg 4.377712 2.365727 2.368504
LeftLeg -1.961182 -0.000000 0.000000
LeftFoot -10.464608 13.946721 -17.495040
LeftToeBase 9.758326 -0.000000 -0.000000
Spine -1.094602 -6.123376 -1.203192
RightShoulder 0.946777 -19.507091 -2.753272
RightArm 18.173294 17.968600 87.859236
RightForeArm 86.114674 -0.000000 81.044528
RightHand 18.989430 -0.000000 -9.117578
RightHandThumb1 -24.326973 -0.000000 -32.862282
LeftShoulder -21.981001 37.203618 -1.359616
LeftArm 42.439158 12.169496 -69.010223
LeftForeArm 17.036406 -0.000000 33.931788
LeftHand -13.902059 -0.000000 -6.570471
LeftHandThumb1 -26.253704 0.000000 33.147579
Head 11.906986 -22.959652 11.519121
2247
root 2.362251 37.011293 2.431589 1.720072 -4.689658 1.307460
RightUpLeg 6.215724 -4.541055 -1.940265
RightLeg -5.150018 -0.000000 0.000000
RightFoot -12.948958 -15.724267 15.700453
RightToeBase 14.747104 -0.000000 -0.000000
LeftUpLeg 4.389196 2.340087 2.332713
LeftLeg -1.976495 -0.000000 0.000000
LeftFoot -10.466604 13.940808 -17.560804
LeftToeBase 9.758068 -0.000000 -0.000000
Spine -1.109652 -6.197770 -1.208505
RightShoulder 0.891589 -19.466543 -2.724512
RightArm 18.085778 18.157456 87.898890
RightForeArm 86.138422 0.000000 81.027877
RightHand 18.750022 0.000000 -8.879173
RightHandThumb1 -24.326973 -0.000000 -32.862282
LeftShoulder -22.027668 37.308458 -1.416336
LeftArm 42.411121 12.245495 -69.033038
LeftForeArm 17.014299 -0.000000 33.968476
LeftHand -13.959918 0.000000 -6.465944
LeftHandThumb1 -26.253704 0.000000 33.147579
Head 11.797631 -22.841057 11.505991
2248
root 2.360109 37.010090 2.439335 1.727131 -4.649583 1.308137
RightUpLeg 6.225841 -4.592641 -1.935632
RightLeg -5.150214 -0.000000 0.000000
RightFoot -12.958009 -15.731471 15.671402
RightToeBase 14.704592 -0.000000 -0.000000
LeftUpLeg 4.402792 2.346651 2.341479
LeftLeg -2.006502 -0.000000 0.000000
LeftFoot -10.427385 13.896935 -17.491551
LeftToeBase 9.723872 -0.000000 -0.000000
Spine -1.119632 -6.275355 -1.199802
RightShoulder 0.836278 -19.566145 -2.707067
RightArm 18.155706 18.320433 87.987923
RightForeArm 86.076196 0.000000 81.008307
RightHand 18.749451 -0.000000 -8.537188
RightHandThumb1 -24.326973 -0.000000 -32.862282
LeftShoulder -22.098968 37.389264 -1.459269
LeftArm 42.350718 12.372159 -69.041613
LeftForeArm 17.064798 -0.000000 33.987791
LeftHand -13.909769 -0.000000 -6.312710
LeftHandThumb1 -26.253704 0.000000 33.147579
Head 11.676494 -22.747029 11.510396
2249
root 2.362447 37.010443 2.449038 1.730871 -4.604961 1.317814
RightUpLeg 6.249476 -4.654592 -1.951056
RightLeg -5.162848 -0.000000 0.000000
RightFoot -12.935433 -15.710643 15.662480
RightToeBase 14.602810 -0.000000 -0.000000
LeftUpLeg 4.410768 2.309800 2.326239
LeftLeg -2.014543 -0.000000 0.000000
LeftFoot -10.430081 13.901723 -17.527523
LeftToeBase 9.719227 -0.000000 -0.000000
Spine -1.148385 -6.373194 -1.170190
RightShoulder 0.795457 -19.597592 -2.692344
RightArm 18.145603 18.448956 88.017438
RightForeArm 85.899625 -0.000000 81.022439
RightHand 19.004812 -0.000000 -8.695669
RightHandThumb1 -24.326973 -0.000000 -32.862282
LeftShoulder -22.152208 37.513763 -1.535744
LeftArm 42.326555 12.424988 -69.078796
LeftForeArm 17.053620 0.000000 33.916828
LeftHand -13.881962 -0.000000 -6.437771
LeftHandThumb1 -26.253704 0.000000 33.147579
Head 11.621382 -22.564994 11.481415
2250
root 2.360462 37.009537 2.457673 1.736485 -4.571106 1.315344
RightUpLeg 6.271028 -4.683205 -1.941182
RightLeg -5.180902 -0.000000 0.000000
RightFoot -12.963308 -15.744505 15.661138
RightToeBase 14.690708 -0.000000 -0.000000
LeftUpLeg 4.424589 2.319714 2.333695
LeftLeg -2.036796 -0.000000 0.000000
LeftFoot -10.417373 13.872228 -17.511940
LeftToeBase 9.727189 -0.000000 -0.000000
Spine -1.161080 -6.470357 -1.166675
RightShoulder 0.734444 -19.609975 -2.642666
RightArm 18.135072 18.532928 87.995805
RightForeArm 85.821368 -0.000000 81.021673
RightHand 18.945948 -0.000000 -8.409608
RightHandThumb1 -24.326973 -0.000000 -32.862282
LeftShoulder -22.237050 37.609855 -1.572862
LeftArm 42.308657 12.535346 -69.112173
LeftForeArm 17.112927 0.000000 33.804948
LeftHand -13.795342 -0.000000 -6.381102
LeftHandThumb1 -26.253704 0.000000 33.147579
Head 11.534893 -22.460718 11.473104
